<mxfile host="app.diagrams.net" modified="2022-08-05T19:51:36.282Z" agent="5.0 (X11)" etag="wmKVEyQd55v1RWWzoQpR" version="20.2.2" type="github">
  <diagram id="cR9EuCwvaOqZ7IE8_LmC" name="Page-1">
    <mxGraphModel dx="1374" dy="1859" grid="1" gridSize="10" guides="1" tooltips="1" connect="1" arrows="1" fold="1" page="1" pageScale="1" pageWidth="850" pageHeight="1100" math="0" shadow="0">
      <root>
        <mxCell id="0" />
        <mxCell id="1" parent="0" />
        <mxCell id="axV2dNaei7y7_R_Oujo1-1" value="" style="rounded=0;whiteSpace=wrap;html=1;fontSize=30;" vertex="1" parent="1">
          <mxGeometry x="60" y="-10" width="760" height="760" as="geometry" />
        </mxCell>
        <mxCell id="axV2dNaei7y7_R_Oujo1-2" value="&lt;div align=&quot;center&quot;&gt;&lt;br&gt;&lt;/div&gt;" style="rounded=0;whiteSpace=wrap;html=1;fontSize=30;align=center;" vertex="1" parent="1">
          <mxGeometry x="210" y="80" width="220" height="450" as="geometry" />
        </mxCell>
        <mxCell id="axV2dNaei7y7_R_Oujo1-5" value="" style="rounded=0;whiteSpace=wrap;html=1;fontSize=30;" vertex="1" parent="1">
          <mxGeometry x="450" y="80" width="150" height="260" as="geometry" />
        </mxCell>
        <mxCell id="axV2dNaei7y7_R_Oujo1-6" value="&lt;div style=&quot;font-size: 30px;&quot;&gt;&lt;font style=&quot;font-size: 30px;&quot;&gt;Server-side&lt;/font&gt;&lt;/div&gt;&lt;div style=&quot;font-size: 30px;&quot;&gt;&lt;font style=&quot;font-size: 30px;&quot;&gt;DB&lt;/font&gt;&lt;/div&gt;" style="image;html=1;image=img/lib/clip_art/computers/Database_128x128.png;fontSize=40;labelPosition=center;verticalLabelPosition=bottom;align=center;verticalAlign=top;" vertex="1" parent="1">
          <mxGeometry x="655" y="170" width="80" height="80" as="geometry" />
        </mxCell>
        <mxCell id="axV2dNaei7y7_R_Oujo1-7" value="" style="dashed=0;outlineConnect=0;html=1;align=center;labelPosition=center;verticalLabelPosition=bottom;verticalAlign=top;shape=mxgraph.weblogos.wordpress_2;fillColor=#00A7DA;strokeColor=none;fontSize=40;" vertex="1" parent="1">
          <mxGeometry x="490.6" y="90" width="68.8" height="68.8" as="geometry" />
        </mxCell>
        <mxCell id="axV2dNaei7y7_R_Oujo1-8" value="" style="shape=image;html=1;verticalAlign=top;verticalLabelPosition=bottom;labelBackgroundColor=#ffffff;imageAspect=0;aspect=fixed;image=https://cdn3.iconfinder.com/data/icons/essential-pack/32/57-File_Format-Php-128.png;fontSize=40;" vertex="1" parent="1">
          <mxGeometry x="485" y="170" width="80" height="80" as="geometry" />
        </mxCell>
        <mxCell id="axV2dNaei7y7_R_Oujo1-9" value="Back end service" style="text;html=1;strokeColor=none;fillColor=none;align=center;verticalAlign=middle;whiteSpace=wrap;rounded=0;fontSize=30;" vertex="1" parent="1">
          <mxGeometry x="450" y="290" width="160" height="30" as="geometry" />
        </mxCell>
        <mxCell id="axV2dNaei7y7_R_Oujo1-11" value="User" style="sketch=0;pointerEvents=1;shadow=0;dashed=0;html=1;strokeColor=none;labelPosition=center;verticalLabelPosition=bottom;verticalAlign=top;align=center;fillColor=#505050;shape=mxgraph.mscae.intune.user_management;fontSize=30;" vertex="1" parent="1">
          <mxGeometry x="90" y="178.5" width="70" height="63" as="geometry" />
        </mxCell>
        <mxCell id="axV2dNaei7y7_R_Oujo1-12" value="Admin side proposed system state" style="text;html=1;strokeColor=none;fillColor=none;align=center;verticalAlign=middle;whiteSpace=wrap;rounded=0;fontSize=30;" vertex="1" parent="1">
          <mxGeometry x="175" y="20" width="500" height="30" as="geometry" />
        </mxCell>
        <mxCell id="axV2dNaei7y7_R_Oujo1-13" value="Service worker" style="verticalLabelPosition=bottom;html=1;verticalAlign=top;align=center;strokeColor=none;fillColor=#00BEF2;shape=mxgraph.azure.worker_role;" vertex="1" parent="1">
          <mxGeometry x="324" y="136.5" width="80" height="65" as="geometry" />
        </mxCell>
        <mxCell id="axV2dNaei7y7_R_Oujo1-14" value="&lt;div style=&quot;font-size: 30px;&quot;&gt;&lt;font style=&quot;font-size: 30px;&quot;&gt;Client-side&lt;/font&gt;&lt;/div&gt;&lt;div style=&quot;font-size: 30px;&quot;&gt;&lt;font style=&quot;font-size: 30px;&quot;&gt;DB&lt;/font&gt;&lt;/div&gt;" style="image;html=1;image=img/lib/clip_art/computers/Database_128x128.png;fontSize=40;labelPosition=center;verticalLabelPosition=bottom;align=center;verticalAlign=top;" vertex="1" parent="1">
          <mxGeometry x="210" y="580" width="80" height="80" as="geometry" />
        </mxCell>
        <mxCell id="axV2dNaei7y7_R_Oujo1-18" style="edgeStyle=orthogonalEdgeStyle;rounded=0;orthogonalLoop=1;jettySize=auto;html=1;exitX=0;exitY=0.5;exitDx=0;exitDy=0;entryX=1;entryY=0.5;entryDx=0;entryDy=0;strokeWidth=2;endArrow=oval;endFill=1;startArrow=oval;startFill=1;" edge="1" parent="1" source="axV2dNaei7y7_R_Oujo1-5" target="axV2dNaei7y7_R_Oujo1-2">
          <mxGeometry relative="1" as="geometry" />
        </mxCell>
        <mxCell id="axV2dNaei7y7_R_Oujo1-3" style="edgeStyle=orthogonalEdgeStyle;rounded=0;orthogonalLoop=1;jettySize=auto;html=1;entryX=0;entryY=0.5;entryDx=0;entryDy=0;fontSize=30;endArrow=oval;endFill=1;strokeWidth=2;startArrow=oval;startFill=1;" edge="1" parent="1" source="axV2dNaei7y7_R_Oujo1-5" target="axV2dNaei7y7_R_Oujo1-6">
          <mxGeometry relative="1" as="geometry" />
        </mxCell>
        <mxCell id="axV2dNaei7y7_R_Oujo1-10" style="edgeStyle=orthogonalEdgeStyle;rounded=0;orthogonalLoop=1;jettySize=auto;html=1;fontSize=30;endArrow=oval;endFill=1;strokeWidth=2;startArrow=oval;startFill=1;" edge="1" parent="1" source="axV2dNaei7y7_R_Oujo1-11">
          <mxGeometry relative="1" as="geometry">
            <mxPoint x="210" y="210" as="targetPoint" />
          </mxGeometry>
        </mxCell>
        <mxCell id="axV2dNaei7y7_R_Oujo1-17" style="edgeStyle=orthogonalEdgeStyle;rounded=0;orthogonalLoop=1;jettySize=auto;html=1;entryX=0.5;entryY=0;entryDx=0;entryDy=0;strokeWidth=2;exitX=0.02;exitY=0.99;exitDx=0;exitDy=0;exitPerimeter=0;endArrow=oval;endFill=1;startArrow=oval;startFill=1;" edge="1" parent="1" source="axV2dNaei7y7_R_Oujo1-13" target="axV2dNaei7y7_R_Oujo1-14">
          <mxGeometry relative="1" as="geometry">
            <Array as="points">
              <mxPoint x="326" y="263" />
              <mxPoint x="250" y="263" />
            </Array>
          </mxGeometry>
        </mxCell>
        <mxCell id="axV2dNaei7y7_R_Oujo1-19" value="&lt;font style=&quot;font-size: 30px;&quot;&gt;UI&lt;/font&gt;" style="text;html=1;strokeColor=none;fillColor=none;align=center;verticalAlign=middle;whiteSpace=wrap;rounded=0;" vertex="1" parent="1">
          <mxGeometry x="325" y="90" width="60" height="30" as="geometry" />
        </mxCell>
        <mxCell id="axV2dNaei7y7_R_Oujo1-20" value="Background sync" style="aspect=fixed;html=1;points=[];align=center;image;fontSize=12;image=img/lib/azure2/storage/Storage_Sync_Services.svg;" vertex="1" parent="1">
          <mxGeometry x="313" y="380" width="72" height="60" as="geometry" />
        </mxCell>
        <mxCell id="axV2dNaei7y7_R_Oujo1-21" value="frontend assets" style="sketch=0;outlineConnect=0;fontColor=#232F3E;gradientColor=none;fillColor=#3F8624;strokeColor=none;dashed=0;verticalLabelPosition=bottom;verticalAlign=top;align=center;html=1;fontSize=12;fontStyle=0;aspect=fixed;pointerEvents=1;shape=mxgraph.aws4.iot_sitewise_asset_model;" vertex="1" parent="1">
          <mxGeometry x="230" y="130" width="78" height="78" as="geometry" />
        </mxCell>
        <mxCell id="axV2dNaei7y7_R_Oujo1-22" style="edgeStyle=orthogonalEdgeStyle;rounded=0;orthogonalLoop=1;jettySize=auto;html=1;fontSize=30;startArrow=oval;startFill=1;endArrow=oval;endFill=1;strokeWidth=2;" edge="1" parent="1" source="axV2dNaei7y7_R_Oujo1-20" target="axV2dNaei7y7_R_Oujo1-14">
          <mxGeometry relative="1" as="geometry">
            <mxPoint x="290" y="620" as="targetPoint" />
            <Array as="points">
              <mxPoint x="349" y="610" />
            </Array>
          </mxGeometry>
        </mxCell>
        <mxCell id="axV2dNaei7y7_R_Oujo1-23" style="edgeStyle=orthogonalEdgeStyle;rounded=0;orthogonalLoop=1;jettySize=auto;html=1;entryX=1;entryY=0.5;entryDx=0;entryDy=0;fontSize=30;startArrow=oval;startFill=1;endArrow=oval;endFill=1;strokeWidth=2;" edge="1" parent="1" source="axV2dNaei7y7_R_Oujo1-20" target="axV2dNaei7y7_R_Oujo1-6">
          <mxGeometry relative="1" as="geometry">
            <Array as="points">
              <mxPoint x="790" y="410" />
              <mxPoint x="790" y="210" />
            </Array>
          </mxGeometry>
        </mxCell>
        <mxCell id="axV2dNaei7y7_R_Oujo1-24" value="" style="outlineConnect=0;dashed=0;verticalLabelPosition=bottom;verticalAlign=top;align=center;html=1;shape=mxgraph.aws3.cache_node;fillColor=#2E73B8;gradientColor=none;fontSize=30;" vertex="1" parent="1">
          <mxGeometry x="334" y="277" width="60" height="63" as="geometry" />
        </mxCell>
        <mxCell id="axV2dNaei7y7_R_Oujo1-25" style="edgeStyle=orthogonalEdgeStyle;rounded=0;orthogonalLoop=1;jettySize=auto;html=1;fontSize=30;startArrow=oval;startFill=1;endArrow=oval;endFill=1;strokeWidth=2;" edge="1" parent="1" source="axV2dNaei7y7_R_Oujo1-13" target="axV2dNaei7y7_R_Oujo1-24">
          <mxGeometry relative="1" as="geometry" />
        </mxCell>
      </root>
    </mxGraphModel>
  </diagram>
</mxfile>
